<?xml version="1.0" encoding="UTF-8"?>
<svg id="Vrstva_1" data-name="Vrstva 1" xmlns="http://www.w3.org/2000/svg" width="711.3" height="307.7" xmlns:xlink="http://www.w3.org/1999/xlink" version="1.1" viewBox="0 0 711.3 307.7">
  <defs>
    <style>
      .cls-1 {
        fill: #f0752b;
      }

      .cls-1, .cls-2, .cls-3 {
        stroke-width: 0px;
      }

      .cls-2 {
        fill: url(#Nepojmenovaný_přechod_173);
      }

      .cls-3 {
        fill: #4a4a4a;
      }
    </style>
    <linearGradient id="Nepojmenovaný_přechod_173" data-name="Nepojmenovaný přechod 173" x1="111.4" y1="189" x2="371.5" y2="46.7" gradientUnits="userSpaceOnUse">
      <stop offset="0" stop-color="#f0752b"/>
      <stop offset="1" stop-color="#8b4114"/>
    </linearGradient>
  </defs>
  <g>
    <path class="cls-3" d="M309,137.5c-1.1-1-1.6-2.5-1.6-4.4v-56.5c0-1.9.5-3.3,1.6-4.4,1.1-1,2.5-1.6,4.4-1.6h19.2c11.2,0,19.9,3,26,9,6.2,6,9.3,14.4,9.3,25.2s-3.1,19.3-9.3,25.3c-6.2,6-14.9,9-26,9h-19.2c-1.9,0-3.3-.5-4.4-1.6ZM331.8,128.9c15.7,0,23.6-8,23.6-24s-7.9-24-23.6-24h-11.9v48h11.9Z"/>
    <path class="cls-3" d="M434.8,70.1c1.6,0,3.1.5,4.4,1.6,1.3,1,1.9,2.3,1.9,3.9s-.2,1.5-.6,2.4l-26.9,57.8c-.6,1.2-1.5,2.2-2.7,2.9-1.2.7-2.5,1-3.8,1s-2.6-.3-3.8-1c-1.2-.7-2.1-1.6-2.7-2.9l-26.8-57.8c-.4-.9-.6-1.7-.6-2.3,0-1.6.7-2.9,2-4s2.8-1.6,4.5-1.6,2.1.3,3.1.8c.9.6,1.7,1.4,2.2,2.5l22.3,49.6,22.3-49.6c1-2.2,2.7-3.3,5.1-3.3Z"/>
    <path class="cls-3" d="M506.4,134.1c0,1.5-.6,2.7-1.8,3.8-1.2,1-2.6,1.6-4.1,1.6s-2-.3-2.9-.8c-.9-.5-1.6-1.4-2.1-2.6l-5.8-13h-34.1l-5.8,13c-.5,1.2-1.2,2-2.1,2.6-.9.5-1.9.8-3,.8s-2.8-.5-4.1-1.6c-1.2-1-1.8-2.3-1.8-3.8s.2-1.7.6-2.5l26.8-57.5c.6-1.3,1.5-2.3,2.7-3,1.2-.7,2.5-1,3.8-1s2.6.3,3.8,1c1.2.7,2.1,1.7,2.7,3l26.9,57.5c.4.8.6,1.7.6,2.5ZM485.4,113.3l-12.8-28.8-12.8,28.8h25.6Z"/>
  </g>
  <g>
    <path class="cls-3" d="M356.9,232.6c0,3.4-1.9,5-5.8,5h-41.3c-1.7,0-3-.5-4-1.5s-1.5-2.3-1.5-3.8.5-3,1.6-4.5l34.7-48.6h-30.4c-3.9,0-5.8-1.6-5.8-4.9s1.9-5,5.8-5h40.1c1.7,0,3,.5,4,1.5,1,1,1.5,2.2,1.5,3.7s-.5,3-1.6,4.5l-34.7,48.7h31.7c3.9,0,5.8,1.6,5.8,4.9ZM325.6,162.2l-8-7.5c-1-.9-1.5-1.9-1.5-3s.4-1.8,1.1-2.6c.7-.7,1.6-1.1,2.6-1.1s2.1.5,3,1.4l7.3,7.5,7.3-7.5c.9-.9,1.9-1.4,3-1.4s1.9.4,2.7,1.1c.7.7,1.1,1.6,1.1,2.6s-.5,2-1.6,3l-8,7.5c-1.4,1.2-2.8,1.7-4.5,1.7s-3-.6-4.5-1.7Z"/>
    <path class="cls-3" d="M369.4,236.5c-1.1-1.2-1.7-2.7-1.7-4.6v-56.9c0-1.9.6-3.4,1.7-4.5s2.6-1.7,4.5-1.7,3.5.6,4.6,1.7c1.1,1.1,1.7,2.6,1.7,4.5v56.9c0,1.9-.6,3.4-1.7,4.6-1.1,1.2-2.7,1.7-4.6,1.7s-3.4-.6-4.5-1.7Z"/>
    <path class="cls-3" d="M451,168.7c1.6,0,3.1.5,4.4,1.6,1.3,1,1.9,2.3,1.9,3.9s-.2,1.5-.6,2.4l-26.9,57.8c-.6,1.2-1.5,2.2-2.7,2.9-1.2.7-2.5,1-3.8,1s-2.6-.3-3.8-1c-1.2-.7-2.1-1.6-2.7-2.9l-26.8-57.8c-.4-.9-.6-1.7-.6-2.3,0-1.6.7-2.9,2-4,1.3-1,2.8-1.6,4.5-1.6s2.1.3,3.1.8c.9.6,1.7,1.4,2.2,2.5l22.3,49.6,22.3-49.6c1-2.2,2.7-3.3,5.1-3.3Z"/>
    <path class="cls-3" d="M477.9,234.3c-4.9-2.8-8.6-6.9-11.3-12.2-2.7-5.3-4-11.5-4-18.6s1.3-13.3,3.9-18.6c2.6-5.3,6.4-9.3,11.3-12.2,4.9-2.8,10.7-4.3,17.4-4.3s12.4,1.4,17.3,4.3c4.9,2.8,8.6,6.9,11.3,12.2,2.6,5.3,3.9,11.5,3.9,18.6s-1.3,13.3-4,18.6c-2.7,5.3-6.4,9.4-11.3,12.2-4.9,2.8-10.6,4.3-17.2,4.3s-12.4-1.4-17.3-4.3ZM509.9,222c3.5-4.3,5.3-10.5,5.3-18.6s-1.8-14.3-5.3-18.6c-3.5-4.3-8.4-6.4-14.7-6.4s-11.3,2.2-14.8,6.4c-3.5,4.3-5.3,10.5-5.3,18.6s1.8,14.3,5.3,18.6c3.5,4.3,8.5,6.5,14.8,6.5s11.2-2.2,14.7-6.5Z"/>
    <path class="cls-3" d="M555.2,236.4c-1.1-1.1-1.7-2.6-1.7-4.5v-52.4h-17.6c-3.9,0-5.8-1.7-5.8-5.1s1.9-5.1,5.8-5.1h47.8c3.9,0,5.8,1.7,5.8,5.1s-1.9,5.1-5.8,5.1h-17.6v52.4c0,1.9-.6,3.4-1.7,4.5-1.1,1.1-2.6,1.7-4.5,1.7s-3.5-.6-4.6-1.7Z"/>
    <path class="cls-3" d="M646.3,168.8c1.5,0,2.8.6,4,1.7,1.2,1.1,1.7,2.5,1.7,4s-.5,2.5-1.5,3.7l-22,26.9v26.9c0,2-.6,3.6-1.7,4.7-1.2,1.1-2.7,1.6-4.5,1.6s-3.4-.5-4.6-1.6c-1.2-1.1-1.7-2.7-1.7-4.7v-26.9l-22-26.9c-1-1.2-1.5-2.4-1.5-3.7s.6-2.9,1.7-4c1.2-1.1,2.5-1.7,4-1.7s3,.7,4.2,2.1l19.9,24.6,19.8-24.6c1.2-1.4,2.6-2.1,4.2-2.1Z"/>
  </g>
  <g>
    <path class="cls-2" d="M253.6,162c11.7-10.7,18.1-25.1,18.1-40.4s-6.4-29.6-18.1-40.4c-11.4-10.5-26.6-16.4-42.6-16.5h-.4c-16.2,0-31.5,5.9-43,16.5l-2.1,1.9-2.1-1.9c-11.5-10.6-26.8-16.5-43-16.5s-31.5,5.9-43,16.5c-11.7,10.7-18.1,25.1-18.1,40.4s6.4,29.6,18.1,40.4l73.1,67.3,16.4,12.9c.7.4,1.4.7,2.3.8h76.9c3.5,0,6.4-2.9,6.4-6.4s-2.9-6.4-6.4-6.4h-64.6l65.9-62.2,6.4-5.9ZM238.5,158.4l-71.5,67.5-8.3-6.5-72.7-67c-9-8.3-14-19.3-14-30.9s5-22.6,14-30.9c9.1-8.4,21.3-13.1,34.3-13.1s25.2,4.6,34.3,13.1l5.1,4.7c-4.4,8.1-6.9,17.4-7,27.3v.2h0c0,3.5,2.9,6.2,6.4,6.2s6.3-2.8,6.4-6.2v-.2h0c.1-24.9,20.4-45.1,45.3-45.1h0c12.3,0,24.5,4.4,33.9,13.1,9,8.3,14,19.3,14,30.9s-4.9,22.6-14,30.9l-6.4,5.9Z"/>
    <path class="cls-1" d="M265.3,230c-3.5,0-6.4,2.9-6.4,6.4s2.9,6.4,6.4,6.4,6.4-2.9,6.4-6.4-2.9-6.4-6.4-6.4Z"/>
  </g>
</svg>